REM DIRINDEX 1\2\6,1\2\7,1\2\8,1\2\9,1\3\10,1\3\11,1\4\12,1\4\13,1\4\14,1\5\15,1\5\16,1\5\17
REM DIRNAME cjc020,folder01,folder02,folder03,folder04,folder05,folder06,folder07,folder08,folder09,folder10,folder11,folder12,folder13,folder14,folder15,folder16
TITLE ""
FILE "1900_3_065 sec11_1067_1083.mp3" MP3
  TRACK 01 AUDIO
    TITLE "0:"
    INDEX 01 00:00:00
  TRACK 02 AUDIO
    TITLE "17:cjc020_8111"
    INDEX 01 00:00:17
  TRACK 03 AUDIO
    TITLE "0:"
    INDEX 01 00:01:22
  TRACK 04 AUDIO
    TITLE "16:cjc020_8112"
    INDEX 01 00:01:28
  TRACK 05 AUDIO
    TITLE "0:"
    INDEX 01 00:02:28
  TRACK 06 AUDIO
    TITLE "17:cjc020_8113"
    INDEX 01 00:03:14
  TRACK 07 AUDIO
    TITLE "0:"
    INDEX 01 00:05:20
  TRACK 08 AUDIO
    TITLE "16:cjc020_8114"
    INDEX 01 00:05:24
  TRACK 09 AUDIO
    TITLE "0:"
    INDEX 01 00:06:18
  TRACK 10 AUDIO
    TITLE "17:cjc020_8115"
    INDEX 01 00:07:05
  TRACK 11 AUDIO
    TITLE "0:"
    INDEX 01 00:08:15
  TRACK 12 AUDIO
    TITLE "16:cjc020_8116"
    INDEX 01 00:08:24
  TRACK 13 AUDIO
    TITLE "0:"
    INDEX 01 00:09:24
  TRACK 14 AUDIO
    TITLE "17:cjc020_8117"
    INDEX 01 00:10:08
  TRACK 15 AUDIO
    TITLE "0:"
    INDEX 01 00:11:19
  TRACK 16 AUDIO
    TITLE "16:cjc020_8118"
    INDEX 01 00:11:25
  TRACK 17 AUDIO
    TITLE "0:"
    INDEX 01 00:12:36
  TRACK 18 AUDIO
    TITLE "17:cjc020_8119"
    INDEX 01 00:13:18
  TRACK 19 AUDIO
    TITLE "0:"
    INDEX 01 00:14:45
  TRACK 20 AUDIO
    TITLE "16:cjc020_8120"
    INDEX 01 00:14:53
  TRACK 21 AUDIO
    TITLE "0:"
    INDEX 01 00:15:48
  TRACK 22 AUDIO
    TITLE "17:cjc020_8121"
    INDEX 01 00:16:28
  TRACK 23 AUDIO
    TITLE "0:"
    INDEX 01 00:17:69
  TRACK 24 AUDIO
    TITLE "16:cjc020_8122"
    INDEX 01 00:17:72
  TRACK 25 AUDIO
    TITLE "0:"
    INDEX 01 00:19:03
  TRACK 26 AUDIO
    TITLE "17:cjc020_8123"
    INDEX 01 00:19:65
  TRACK 27 AUDIO
    TITLE "0:"
    INDEX 01 00:21:04
  TRACK 28 AUDIO
    TITLE "16:cjc020_8124"
    INDEX 01 00:21:09
  TRACK 29 AUDIO
    TITLE "0:"
    INDEX 01 00:22:30
  TRACK 30 AUDIO
    TITLE "17:cjc020_8125"
    INDEX 01 00:23:16
  TRACK 31 AUDIO
    TITLE "0:"
    INDEX 01 00:24:37
  TRACK 32 AUDIO
    TITLE "16:cjc020_8126"
    INDEX 01 00:24:39
  TRACK 33 AUDIO
    TITLE "0:"
    INDEX 01 00:25:37
  TRACK 34 AUDIO
    TITLE "17:cjc020_8127"
    INDEX 01 00:26:20
  TRACK 35 AUDIO
    TITLE "0:"
    INDEX 01 00:27:28
  TRACK 36 AUDIO
    TITLE "16:cjc020_8128"
    INDEX 01 00:27:30
  TRACK 37 AUDIO
    TITLE "0:"
    INDEX 01 00:28:43
  TRACK 38 AUDIO
    TITLE "17:cjc020_8129"
    INDEX 01 00:29:33
  TRACK 39 AUDIO
    TITLE "0:"
    INDEX 01 00:30:42
  TRACK 40 AUDIO
    TITLE "16:cjc020_8130"
    INDEX 01 00:30:50
  TRACK 41 AUDIO
    TITLE "0:"
    INDEX 01 00:31:51
  TRACK 42 AUDIO
    TITLE "17:cjc020_8131"
    INDEX 01 00:32:29
  TRACK 43 AUDIO
    TITLE "0:"
    INDEX 01 00:34:55
  TRACK 44 AUDIO
    TITLE "16:cjc020_8132"
    INDEX 01 00:34:57
  TRACK 45 AUDIO
    TITLE "0:"
    INDEX 01 00:35:55
  TRACK 46 AUDIO
    TITLE "17:cjc020_8133"
    INDEX 01 00:36:38
  TRACK 47 AUDIO
    TITLE "0:"
    INDEX 01 00:37:36
  TRACK 48 AUDIO
    TITLE "16:cjc020_8134"
    INDEX 01 00:37:44
  TRACK 49 AUDIO
    TITLE "0:"
    INDEX 01 00:38:47
  TRACK 50 AUDIO
    TITLE "17:cjc020_8135"
    INDEX 01 00:39:33
  TRACK 51 AUDIO
    TITLE "0:"
    INDEX 01 00:40:48
  TRACK 52 AUDIO
    TITLE "16:cjc020_8136"
    INDEX 01 00:40:54
  TRACK 53 AUDIO
    TITLE "0:"
    INDEX 01 00:41:61
  TRACK 54 AUDIO
    TITLE "17:cjc020_8137"
    INDEX 01 00:42:45
  TRACK 55 AUDIO
    TITLE "0:"
    INDEX 01 00:43:66
  TRACK 56 AUDIO
    TITLE "16:cjc020_8138"
    INDEX 01 00:43:72
  TRACK 57 AUDIO
    TITLE "0:"
    INDEX 01 00:45:04
  TRACK 58 AUDIO
    TITLE "17:cjc020_8139"
    INDEX 01 00:45:63
  TRACK 59 AUDIO
    TITLE "0:"
    INDEX 01 00:47:01
  TRACK 60 AUDIO
    TITLE "16:cjc020_8140"
    INDEX 01 00:47:09
  TRACK 61 AUDIO
    TITLE "0:"
    INDEX 01 00:48:14
  TRACK 62 AUDIO
    TITLE "17:cjc020_8141"
    INDEX 01 00:48:73
  TRACK 63 AUDIO
    TITLE "0:"
    INDEX 01 00:50:13
  TRACK 64 AUDIO
    TITLE "16:cjc020_8142"
    INDEX 01 00:50:17
  TRACK 65 AUDIO
    TITLE "0:"
    INDEX 01 00:51:30
  TRACK 66 AUDIO
    TITLE "17:cjc020_8143"
    INDEX 01 00:52:14
  TRACK 67 AUDIO
    TITLE "0:"
    INDEX 01 00:53:31
  TRACK 68 AUDIO
    TITLE "16:cjc020_8144"
    INDEX 01 00:53:39
  TRACK 69 AUDIO
    TITLE "0:"
    INDEX 01 00:54:40
